<?xml version="1.0" encoding="UTF-8"?>
<svg version="1.1" xmlns="http://www.w3.org/2000/svg" width="141" height="49">
<path d="M0 0 C2 3 2 3 2 5 C2.99 5.33 3.98 5.66 5 6 C5.19294408 10.82360189 4.75747614 14.49646738 3 19 C3.9075 18.34 4.815 17.68 5.75 17 C9 15 9 15 13 15 C13 15.66 13 16.32 13 17 C14.32 17 15.64 17 17 17 C17 17.66 17 18.32 17 19 C17.99 18.67 18.98 18.34 20 18 C20 23.61 20 29.22 20 35 C17.97875 35.5775 15.9575 36.155 13.875 36.75 C8.91046667 38.26588804 5.04209582 39.76632335 1 43 C0.505 42.505 0.505 42.505 0 42 C-3.47842703 40.53378473 -7.01786789 39.23407614 -10.5625 37.9375 C-11.49191406 37.59589844 -12.42132813 37.25429688 -13.37890625 36.90234375 C-16.20154185 35.8883668 -16.20154185 35.8883668 -20 35 C-20 29.39 -20 23.78 -20 18 C-18.68 18.33 -17.36 18.66 -16 19 C-16 18.34 -16 17.68 -16 17 C-14.68 17 -13.36 17 -12 17 C-12 16.34 -12 15.68 -12 15 C-8.04179141 15.56545837 -5.3340947 16.80902348 -2 19 C-2.28875 18.4225 -2.5775 17.845 -2.875 17.25 C-3.24625 16.5075 -3.6175 15.765 -4 15 C-4.391875 14.38125 -4.78375 13.7625 -5.1875 13.125 C-6.38075611 10.00417632 -5.97206455 8.17541085 -5 5 C-2.4375 2.125 -2.4375 2.125 0 0 Z M0 25 C-0.33 25.66 -0.66 26.32 -1 27 C-0.34 27 0.32 27 1 27 C0.67 26.34 0.34 25.68 0 25 Z " fill="#6789C6" transform="translate(24,3)"/>
<path d="M0 0 C2 3 2 3 2 5 C2.99 5.33 3.98 5.66 5 6 C5.16823707 10.3741638 5.09451417 13.18059182 3 17 C2.61709538 18.99110401 2.27395385 20.99100513 2 23 C2.66 23 3.32 23 4 23 C4.25 29.625 4.25 29.625 2 33 C0.68 33 -0.64 33 -2 33 C-3.87127577 29.14737341 -4.10302844 27.11128782 -3 23 C-2.18415432 19.94091587 -2.18415432 19.94091587 -2 17 C-3.37485532 15.45833358 -3.37485532 15.45833358 -5 14 C-6.00991056 11.0375957 -6.41961663 9.04690068 -5.234375 6.08984375 C-2.59791076 1.29895538 -2.59791076 1.29895538 0 0 Z M0 25 C-0.33 25.66 -0.66 26.32 -1 27 C-0.34 27 0.32 27 1 27 C0.67 26.34 0.34 25.68 0 25 Z " fill="#F49112" transform="translate(24,3)"/>
<path d="M0 0 C1.32 0 2.64 0 4 0 C4 4.62 4 9.24 4 14 C5.32 14.33 6.64 14.66 8 15 C10.01526169 15.96887581 12.01833966 16.9641321 14 18 C14 18.66 14 19.32 14 20 C14.66 20 15.32 20 16 20 C16 21.65 16 23.3 16 25 C14.93458984 24.56880859 14.93458984 24.56880859 13.84765625 24.12890625 C11.05793974 23.02296925 8.25575498 21.96837769 5.4375 20.9375 C4.50808594 20.59589844 3.57867187 20.25429688 2.62109375 19.90234375 C-0.20154185 18.8883668 -0.20154185 18.8883668 -4 18 C-4 12.39 -4 6.78 -4 1 C-2.68 1.33 -1.36 1.66 0 2 C0 1.34 0 0.68 0 0 Z " fill="#E5952B" transform="translate(8,20)"/>
<path d="M0 0 C1.32 0 2.64 0 4 0 C4 0.66 4 1.32 4 2 C4.99 1.67 5.98 1.34 7 1 C7 6.61 7 12.22 7 18 C3.968125 18.86625 3.968125 18.86625 0.875 19.75 C-4.08953333 21.26588804 -7.95790418 22.76632335 -12 26 C-12.3125 23.25 -12.3125 23.25 -12 20 C-9.34270483 17.34270483 -6.49283582 15.39713433 -3 14 C-2.01 14 -1.02 14 0 14 C0 9.38 0 4.76 0 0 Z " fill="#D09B43" transform="translate(37,20)"/>
<path d="M0 0 C4 1 4 1 6.25 4.0625 C7.11625 5.5165625 7.11625 5.5165625 8 7 C8.33 4.69 8.66 2.38 9 0 C10.32 0 11.64 0 13 0 C13 4.95 13 9.9 13 15 C8 14 8 14 5.6875 10.9375 C5.130625 9.968125 4.57375 8.99875 4 8 C3.67 10.31 3.34 12.62 3 15 C2.01 15 1.02 15 0 15 C0 10.05 0 5.1 0 0 Z " fill="#4A8BF5" transform="translate(79,17)"/>
<path d="M0 0 C1.9375 1.125 1.9375 1.125 3 3 C3.3898913 6.57400356 3.37020241 9.09763163 2 12.4375 C-0.58949107 14.4605399 -2.81364374 14.62470607 -6.0546875 14.4453125 C-8 14 -8 14 -10.5625 11.9375 C-12.44610971 8.08838451 -12.207644 6.07579849 -11 2 C-7.79952331 -1.93904824 -4.62362797 -1.17692348 0 0 Z M-6 2 C-8.00719496 4.17862819 -8.00719496 4.17862819 -9 7 C-8.30859649 9.30287793 -8.30859649 9.30287793 -7 11 C-4.58354218 11.16687448 -4.58354218 11.16687448 -2 11 C0.2491908 9.17296773 0.2491908 9.17296773 0.25 6.5 C0.2491908 3.82703227 0.2491908 3.82703227 -2 2 C-3.32 2 -4.64 2 -6 2 Z " fill="#498BF1" transform="translate(70,18)"/>
<path d="M0 0 C4.36568695 0.87313739 6.42547265 1.65102489 10 4 C9.855625 4.66 9.71125 5.32 9.5625 6 C8.87700084 9.65599551 8.43824485 13.30622195 8 17 C5.61435923 16.42415568 3.33317216 15.77772405 1 15 C0.67 10.05 0.34 5.1 0 0 Z " fill="#488DFB" transform="translate(12,18)"/>
<path d="M0 0 C0.928125 0.20625 1.85625 0.4125 2.8125 0.625 C3.1425 1.615 3.4725 2.605 3.8125 3.625 C0.8125 4.625 0.8125 4.625 -1.375 3.6875 C-1.973125 3.336875 -2.57125 2.98625 -3.1875 2.625 C-1.05969421 4.96558637 0.92812221 6.33200306 3.8125 7.625 C3.8125 9.605 3.8125 11.585 3.8125 13.625 C1.07344655 14.99452673 -1.15837332 14.75121361 -4.1875 14.625 C-4.8475 14.295 -5.5075 13.965 -6.1875 13.625 C-6.1875 12.305 -6.1875 10.985 -6.1875 9.625 C-5.1975 9.625 -4.2075 9.625 -3.1875 9.625 C-3.1875 10.285 -3.1875 10.945 -3.1875 11.625 C-1.8675 11.625 -0.5475 11.625 0.8125 11.625 C-0.69413783 8.61172434 -3.21916411 8.01443382 -6.1875 6.625 C-6.375 4.25 -6.375 4.25 -6.1875 1.625 C-3.1875 -0.375 -3.1875 -0.375 0 0 Z " fill="#4B8BF0" transform="translate(120.1875,17.375)"/>
<path d="M0 0 C1.32 0.33 2.64 0.66 4 1 C4 5.62 4 10.24 4 15 C6.1346875 15.7115625 6.1346875 15.7115625 8.3125 16.4375 C10.875 17.29166667 13.4375 18.14583333 16 19 C16 19.66 16 20.32 16 21 C17.32 21.66 18.64 22.32 20 23 C16.24468316 23 13.97450849 21.69030143 10.64453125 20.0703125 C7.22143345 18.6848933 3.58257022 17.89564255 0 17 C0 11.39 0 5.78 0 0 Z " fill="#5389E3" transform="translate(4,21)"/>
<path d="M0 0 C0 5.61 0 11.22 0 17 C-3.031875 17.86625 -3.031875 17.86625 -6.125 18.75 C-11.08953333 20.26588804 -14.95790418 21.76632335 -19 25 C-15.72413793 18.44827586 -15.72413793 18.44827586 -12 17 C-9.25 16.875 -9.25 16.875 -7 17 C-7 16.34 -7 15.68 -7 15 C-5.68 15 -4.36 15 -3 15 C-3 10.38 -3 5.76 -3 1 C-1 0 -1 0 0 0 Z " fill="#678ECB" transform="translate(44,21)"/>
<path d="M0 0 C5.38940095 -0.02488181 10.7787678 -0.04294551 16.16821289 -0.05493164 C17.99829695 -0.05993319 19.82837707 -0.06673656 21.65844727 -0.07543945 C24.30225604 -0.08768932 26.94601158 -0.09327023 29.58984375 -0.09765625 C30.39646957 -0.10281754 31.2030954 -0.10797882 32.03416443 -0.11329651 C37.42943409 -0.11381887 42.6462362 0.32405516 48 1 C48 1.33 48 1.66 48 2 C32.16 2 16.32 2 0 2 C0 1.34 0 0.68 0 0 Z " fill="#AEAEAE" transform="translate(93,41)"/>
<path d="M0 0 C0 0.66 0 1.32 0 2 C-0.66 2 -1.32 2 -2 2 C-2 6.29 -2 10.58 -2 15 C-2.99 15 -3.98 15 -5 15 C-5.33 13.35 -5.66 11.7 -6 10 C-6.66 10 -7.32 10 -8 10 C-8 9.01 -8 8.02 -8 7 C-8.66 7 -9.32 7 -10 7 C-9.8125 5.1875 -9.8125 5.1875 -9 3 C-5.65188866 0.46629412 -4.29875783 0 0 0 Z " fill="#3179F6" transform="translate(37,18)"/>
<path d="M0 0 C2 3 2 3 2 5 C2.66 5.33 3.32 5.66 4 6 C3.23997083 7.31878578 2.46656347 8.6298684 1.6875 9.9375 C1.25824219 10.66839844 0.82898438 11.39929688 0.38671875 12.15234375 C-1 14 -1 14 -4 15 C-5.63727927 12.49592582 -6.00195201 11.09174448 -5.9375 8.0625 C-4.77877523 4.2773324 -2.9488901 2.57082726 0 0 Z " fill="#EC8337" transform="translate(24,3)"/>
<path d="M0 0 C3.63 0 7.26 0 11 0 C11 0.99 11 1.98 11 3 C9.68 3 8.36 3 7 3 C7 6.96 7 10.92 7 15 C6.01 15 5.02 15 4 15 C4 11.04 4 7.08 4 3 C2.68 3 1.36 3 0 3 C0 2.01 0 1.02 0 0 Z " fill="#4B8BF1" transform="translate(130,17)"/>
<path d="M0 0 C0.66 0 1.32 0 2 0 C2 4.62 2 9.24 2 14 C-2.455 14.495 -2.455 14.495 -7 15 C-7 12.03 -7 9.06 -7 6 C-7.66 6 -8.32 6 -9 6 C-8.67 5.01 -8.34 4.02 -8 3 C-8 3.66 -8 4.32 -8 5 C-7.34 5 -6.68 5 -6 5 C-6 5.99 -6 6.98 -6 8 C-5.34 8 -4.68 8 -4 8 C-3.67 9.65 -3.34 11.3 -3 13 C-2.01 13 -1.02 13 0 13 C0 8.71 0 4.42 0 0 Z " fill="#5A85CF" transform="translate(35,20)"/>
<path d="M0 0 C0.33 0 0.66 0 1 0 C1 1.65 1 3.3 1 5 C1.66 5 2.32 5 3 5 C3.25 11.625 3.25 11.625 1 15 C-0.32 15 -1.64 15 -3 15 C-4.83354669 11.22505093 -5.27227191 9.02886104 -4 5 C-3.34 4.01 -2.68 3.02 -2 2 C-2.875 6.75 -2.875 6.75 -4 9 C-2.68 9 -1.36 9 0 9 C0 6.03 0 3.06 0 0 Z " fill="#CA7051" transform="translate(25,21)"/>
<path d="M0 0 C0.66 0 1.32 0 2 0 C2.33 1.32 2.66 2.64 3 4 C3.66 4 4.32 4 5 4 C5.33 2.68 5.66 1.36 6 0 C6.66 0 7.32 0 8 0 C8 2.97 8 5.94 8 9 C5.33333333 9 2.66666667 9 0 9 C0 6.03 0 3.06 0 0 Z " fill="#A8A6A6" transform="translate(70,38)"/>
<path d="M0 0 C2.4375 0.75 2.4375 0.75 5 2 C5.763125 2.37125 6.52625 2.7425 7.3125 3.125 C7.869375 3.41375 8.42625 3.7025 9 4 C9 4.66 9 5.32 9 6 C9.66 6 10.32 6 11 6 C11 6.99 11 7.98 11 9 C9.68 8.67 8.36 8.34 7 8 C7 7.34 7 6.68 7 6 C6.36191406 5.87882812 5.72382813 5.75765625 5.06640625 5.6328125 C4.24011719 5.46523438 3.41382813 5.29765625 2.5625 5.125 C1.73878906 4.96257813 0.91507813 4.80015625 0.06640625 4.6328125 C-0.61550781 4.42398438 -1.29742187 4.21515625 -2 4 C-2.33 3.34 -2.66 2.68 -3 2 C-2.01 1.34 -1.02 0.68 0 0 Z " fill="#B89760" transform="translate(13,34)"/>
<path d="M0 0 C0.33 1.32 0.66 2.64 1 4 C0.37351562 4.09796875 -0.25296875 4.1959375 -0.8984375 4.296875 C-1.71570312 4.44640625 -2.53296875 4.5959375 -3.375 4.75 C-4.18710937 4.88921875 -4.99921875 5.0284375 -5.8359375 5.171875 C-8.17709092 5.81749261 -8.17709092 5.81749261 -9.2890625 8.078125 C-9.52367188 8.71234375 -9.75828125 9.3465625 -10 10 C-10.33 8.68 -10.66 7.36 -11 6 C-3.8 0 -3.8 0 0 0 Z " fill="#B8955D" transform="translate(36,34)"/>
<path d="M0 0 C1.65 0.33 3.3 0.66 5 1 C5 1.66 5 2.32 5 3 C4.01 3 3.02 3 2 3 C2.99 3.66 3.98 4.32 5 5 C5 5.99 5 6.98 5 8 C3.35 8.33 1.7 8.66 0 9 C-0.66 8.01 -1.32 7.02 -2 6 C-0.68 6 0.64 6 2 6 C1.01 5.34 0.02 4.68 -1 4 C-0.67 2.68 -0.34 1.36 0 0 Z " fill="#A8A7A9" transform="translate(85,38)"/>
<path d="M0 0 C0.33 0 0.66 0 1 0 C1 3.96 1 7.92 1 12 C0.01 12 -0.98 12 -2 12 C-3.34899329 5.74557657 -3.34899329 5.74557657 -1.625 2.0625 C-1.08875 1.381875 -0.5525 0.70125 0 0 Z " fill="#4589FF" transform="translate(34,21)"/>
<path d="M0 0 C0.3690205 10.55808656 0.3690205 10.55808656 -2 15 C-2.33 15 -2.66 15 -3 15 C-3 10.38 -3 5.76 -3 1 C-1 0 -1 0 0 0 Z " fill="#6A8ABE" transform="translate(44,21)"/>
<path d="M0 0 C4 1.33333333 8 2.66666667 12 4 C12 4.66 12 5.32 12 6 C13.32 6.66 14.64 7.32 16 8 C12.80509658 8 11.40382456 7.40889494 8.5625 6.0625 C5.72002421 4.72062057 3.07616371 3.66568463 0 3 C0 2.01 0 1.02 0 0 Z " fill="#5C8AD3" transform="translate(8,36)"/>
<path d="M0 0 C3.63 0 7.26 0 11 0 C11 0.99 11 1.98 11 3 C7.37 3 3.74 3 0 3 C0 2.01 0 1.02 0 0 Z " fill="#EE9414" transform="translate(97,17)"/>
<path d="M0 0 C3.63 0 7.26 0 11 0 C11 0.99 11 1.98 11 3 C7.7 3 4.4 3 1 3 C0.67 2.01 0.34 1.02 0 0 Z " fill="#EF971B" transform="translate(97,30)"/>
<path d="M0 0 C0.66 0 1.32 0 2 0 C2 2.31 2 4.62 2 7 C2.99 7 3.98 7 5 7 C5 7.66 5 8.32 5 9 C3.35 9 1.7 9 0 9 C0 6.03 0 3.06 0 0 Z " fill="#A8A7A6" transform="translate(59,38)"/>
<path d="M0 0 C0.33 0.66 0.66 1.32 1 2 C2.65 2 4.3 2 6 2 C3.44008376 4.01136276 0.95409701 5.62845496 -2 7 C-2 6.01 -2 5.02 -2 4 C-2.66 3.67 -3.32 3.34 -4 3 C-3.01 3 -2.02 3 -1 3 C-0.67 2.01 -0.34 1.02 0 0 Z " fill="#5A80C5" transform="translate(27,33)"/>
<path d="M0 0 C0.99 0.33 1.98 0.66 3 1 C3 3.31 3 5.62 3 8 C2.01 8 1.02 8 0 8 C0 5.36 0 2.72 0 0 Z " fill="#498DEF" transform="translate(79,24)"/>
<path d="M0 0 C2 3 2 3 2 5 C-0.31 5.33 -2.62 5.66 -5 6 C-2.25 1.125 -2.25 1.125 0 0 Z " fill="#E49443" transform="translate(24,3)"/>
<path d="M0 0 C0.33 0 0.66 0 1 0 C1 2.31 1 4.62 1 7 C-0.98 7.33 -2.96 7.66 -5 8 C-4.54625 7.608125 -4.0925 7.21625 -3.625 6.8125 C-1.72357081 4.69167513 -0.93795972 2.66957765 0 0 Z " fill="#568AE3" transform="translate(43,31)"/>
<path d="M0 0 C0.99 0 1.98 0 3 0 C2.44271087 3.34373475 1.64826111 6.03312999 0 9 C-1.125 2.25 -1.125 2.25 0 0 Z " fill="#5D8AD6" transform="translate(19,22)"/>
<path d="M0 0 C2.97 0 5.94 0 9 0 C9 0.66 9 1.32 9 2 C6.03 2 3.06 2 0 2 C0 1.34 0 0.68 0 0 Z " fill="#E1972F" transform="translate(97,24)"/>
<path d="M0 0 C1.32 0.33 2.64 0.66 4 1 C4.33 2.65 4.66 4.3 5 6 C4.01 6.495 4.01 6.495 3 7 C3 5.68 3 4.36 3 3 C2.01 2.67 1.02 2.34 0 2 C0 1.34 0 0.68 0 0 Z " fill="#428DF8" transform="translate(68,19)"/>
</svg>
