<?xml version="1.0" standalone="no"?>
<!DOCTYPE svg PUBLIC "-//W3C//DTD SVG 20010904//EN"
 "http://www.w3.org/TR/2001/REC-SVG-20010904/DTD/svg10.dtd">
<svg version="1.0" xmlns="http://www.w3.org/2000/svg"
 width="141.000000pt" height="49.000000pt" viewBox="0 0 141.000000 49.000000"
 preserveAspectRatio="xMidYMid meet">

<g transform="translate(0.000000,49.000000) scale(0.100000,-0.100000)"
fill="#000000" stroke="none">
<path d="M303 279 c-38 -24 -41 -39 -12 -57 18 -12 21 -11 26 7 3 12 9 21 13
21 4 0 12 11 18 25 15 32 0 33 -45 4z"/>
<path d="M253 182 l-2 -37 15 28 c8 15 12 32 9 37 -12 20 -20 9 -22 -28z"/>
<path d="M301 184 c0 -11 3 -14 6 -6 3 7 2 16 -1 19 -3 4 -6 -2 -5 -13z"/>
<path d="M266 133 c-6 -14 -5 -15 5 -6 7 7 10 15 7 18 -3 3 -9 -2 -12 -12z"/>
</g>
</svg>
