<?xml version="1.0" encoding="utf-8"?>
<!-- Generator: Adobe Illustrator 21.0.0, SVG Export Plug-In . SVG Version: 6.00 Build 0)  -->
<svg version="1.1" id="Layer_1" xmlns="http://www.w3.org/2000/svg" xmlns:xlink="http://www.w3.org/1999/xlink" x="0px" y="0px"
	 viewBox="0 0 512 512" style="enable-background:new 0 0 512 512;" xml:space="preserve">
<g>
	<path d="M199.1,0c-74,0-132.7,58.8-132.7,132.7c0,46.2,22.9,86.5,58.2,110.2C57.1,272.1,9.5,339.3,9.5,417.2h37.9
		c0-83.4,68.3-151.7,151.7-151.7c74,0,132.7-58.8,132.7-132.7S273.1,0,199.1,0z M199.1,37.9c53.1,0,94.8,41.7,94.8,94.8
		s-41.7,94.8-94.8,94.8s-94.8-41.7-94.8-94.8S146,37.9,199.1,37.9z M293.9,265.5c-20.9,0-37.9,17.1-37.9,37.9v83.4l113.8,113.8
		c7.6,7.6,17.1,11.4,26.6,11.4c9.5,0,19-3.8,26.6-11.4l68.3-68.3c7.6-7.6,11.4-17.1,11.4-26.6s-3.8-19-11.4-26.6L377.4,265.5H293.9z
		 M293.9,303.4h68.3l102.4,102.4l-68.3,68.3L293.9,371.7V303.4z M331.9,322.4c-10.5,0-19,8.5-19,19c0,10.5,8.5,19,19,19
		c10.5,0,19-8.5,19-19C350.8,330.9,342.3,322.4,331.9,322.4z"/>
</g>
</svg>
