<?xml version="1.0" standalone="no"?>
<!DOCTYPE svg PUBLIC "-//W3C//DTD SVG 20010904//EN"
 "http://www.w3.org/TR/2001/REC-SVG-20010904/DTD/svg10.dtd">
<svg version="1.0" xmlns="http://www.w3.org/2000/svg"
 width="1600.000000pt" height="1599.000000pt" viewBox="0 0 1600.000000 1599.000000"
 preserveAspectRatio="xMidYMid meet">

<g transform="translate(0.000000,1599.000000) scale(0.100000,-0.100000)"
fill="#000000" stroke="none">
<path d="M6000 13814 c-237 -19 -410 -67 -604 -166 -384 -194 -674 -552 -765
-942 -42 -176 -41 -112 -41 -2324 0 -1430 3 -2144 11 -2210 10 -93 46 -242 75
-309 8 -17 14 -37 14 -44 0 -7 6 -20 13 -28 8 -9 20 -32 27 -51 8 -19 27 -59
44 -88 17 -29 36 -62 42 -73 6 -10 18 -27 27 -37 10 -10 17 -23 17 -28 0 -5
35 -46 78 -91 42 -46 82 -88 88 -95 18 -21 146 -133 158 -138 15 -7 70 -43 76
-50 3 -4 20 -12 38 -20 19 -7 46 -25 60 -39 15 -14 52 -35 82 -45 30 -10 71
-25 90 -33 64 -27 75 -31 100 -38 14 -3 41 -11 60 -16 19 -5 91 -18 160 -29
119 -19 174 -20 1135 -20 1342 0 1499 0 1710 -1 766 -3 1386 2 1444 12 36 6
78 12 93 14 15 2 42 8 60 14 18 6 71 22 118 36 101 31 274 115 385 187 102 67
303 267 380 377 113 162 192 344 235 538 18 82 26 163 15 151 -3 -2 -11 -42
-20 -89 -39 -224 -146 -461 -287 -640 -159 -201 -414 -385 -653 -469 -249 -87
-263 -88 -1199 -89 -445 -1 -806 2 -802 6 4 5 60 11 124 14 64 3 -441 6 -1123
7 -1365 3 -1546 8 -1700 46 -209 51 -378 130 -520 241 -325 254 -518 599 -555
990 -14 154 -14 4115 1 4256 19 186 55 310 139 480 88 178 226 346 380 464 36
27 67 53 68 57 2 4 7 8 12 8 4 0 37 17 71 38 189 113 404 177 629 187 81 4
2899 6 3225 3 11 0 184 0 385 1 354 2 614 -10 635 -30 5 -5 20 -9 32 -9 31 0
241 -69 272 -89 13 -8 32 -16 43 -16 11 -1 23 -7 26 -12 4 -6 24 -18 45 -26
20 -9 37 -21 37 -27 0 -5 18 -17 40 -26 22 -9 40 -22 40 -29 0 -8 10 -17 22
-21 12 -3 36 -19 52 -35 17 -16 35 -29 39 -29 5 0 5 -4 2 -10 -3 -5 1 -10 9
-10 18 0 166 -148 166 -166 0 -6 7 -17 15 -24 20 -16 105 -147 105 -161 0 -6
9 -22 20 -36 11 -14 20 -33 20 -42 0 -10 4 -21 9 -27 4 -5 21 -45 36 -89 15
-44 31 -89 36 -100 5 -11 18 -73 29 -138 20 -116 21 -152 22 -2240 1 -1167 5
-2111 9 -2097 4 14 7 984 8 2155 1 2344 5 2203 -60 2405 -170 529 -653 911
-1219 964 -30 3 -428 6 -885 7 -456 2 -837 5 -845 8 -8 3 17 9 55 12 39 3
-308 6 -770 7 -462 1 -1011 4 -1220 6 -209 2 -400 2 -425 0z m2160 -6864 c0
-5 -7 -10 -16 -10 -8 0 -12 5 -9 10 3 6 10 10 16 10 5 0 9 -4 9 -10z m277 -4
c3 -3 -39 -5 -93 -4 -63 1 -84 4 -59 7 47 7 144 5 152 -3z m-384 -3 c-7 -2
-19 -2 -25 0 -7 3 -2 5 12 5 14 0 19 -2 13 -5z m180 0 c-7 -2 -19 -2 -25 0 -7
3 -2 5 12 5 14 0 19 -2 13 -5z"/>
<path d="M8898 13803 c12 -2 30 -2 40 0 9 3 -1 5 -23 4 -22 0 -30 -2 -17 -4z"/>
<path d="M8100 13504 c-24 -13 -145 -71 -375 -180 -87 -41 -449 -212 -775
-366 -58 -28 -134 -64 -170 -80 -195 -92 -254 -119 -340 -161 -485 -231 -676
-319 -702 -324 -34 -7 -35 -16 -4 -36 13 -9 31 -23 40 -32 15 -15 275 -148
406 -208 30 -14 96 -44 145 -67 263 -124 332 -152 378 -155 l47 -3 0 62 c0
130 49 245 140 330 86 79 344 208 567 282 324 108 729 142 1023 85 25 -4 86
-16 135 -26 50 -9 104 -24 122 -31 17 -8 36 -14 42 -14 13 0 130 -44 187 -71
23 -10 46 -19 53 -19 6 0 66 -28 134 -61 127 -64 229 -128 260 -163 68 -76
127 -204 127 -275 0 -54 11 -111 22 -111 5 0 44 16 86 36 163 77 232 98 247
74 4 -6 7 -96 8 -201 2 -182 3 -191 25 -213 12 -13 22 -29 22 -36 0 -13 -24
-91 -51 -168 -28 -77 -26 -90 16 -98 56 -10 232 14 227 31 -1 6 -20 66 -42
135 -48 149 -49 160 -15 160 l25 0 0 359 c0 198 3 366 6 375 5 13 9 12 25 -7
12 -16 19 -44 21 -88 3 -61 4 -64 27 -61 13 1 111 46 217 99 173 86 213 113
169 113 -15 0 -387 172 -818 379 -81 39 -150 71 -151 71 -2 0 -73 33 -157 74
-85 40 -179 85 -209 99 -49 22 -131 61 -545 257 -60 28 -132 62 -160 75 -46
21 -201 94 -321 151 -57 27 -78 28 -114 8z"/>
<path d="M7940 12609 c-267 -28 -529 -108 -795 -241 -242 -122 -294 -174 -332
-333 -20 -81 -17 -375 3 -395 5 -5 34 15 69 48 33 32 80 73 105 92 25 19 47
37 50 40 3 4 41 30 85 60 100 66 288 160 380 190 39 13 75 25 80 29 6 3 17 6
25 8 8 1 31 6 50 12 38 12 196 38 275 46 93 10 369 7 440 -5 399 -66 674 -189
966 -432 35 -29 69 -53 76 -54 7 -1 25 -12 40 -24 l28 -22 5 164 c12 356 -29
427 -335 578 -89 44 -165 80 -169 80 -4 0 -22 6 -39 14 -84 38 -362 116 -462
130 -182 26 -392 32 -545 15z"/>
<path d="M11433 12380 c0 -41 2 -58 4 -37 2 20 2 54 0 75 -2 20 -4 3 -4 -38z"/>
<path d="M11433 12235 c0 -22 2 -30 4 -17 2 12 2 30 0 40 -3 9 -5 -1 -4 -23z"/>
<path d="M11434 12090 c0 -52 1 -74 3 -47 2 26 2 68 0 95 -2 26 -3 4 -3 -48z"/>
<path d="M7900 11995 c-274 -34 -509 -110 -670 -217 -47 -31 -95 -64 -107 -74
-31 -27 -59 -51 -133 -113 -82 -69 -85 -73 -185 -206 -137 -184 -187 -289
-252 -530 -32 -118 -36 -145 -41 -302 -4 -163 7 -323 28 -398 57 -204 143
-408 210 -500 16 -22 42 -58 57 -80 100 -146 294 -331 453 -434 98 -62 322
-170 409 -197 211 -65 401 -93 618 -94 l122 0 14 -27 c30 -60 62 -282 52 -356
-4 -27 -9 -66 -11 -86 -6 -60 -38 -219 -46 -227 -11 -10 -10 -34 0 -34 9 0 46
128 63 220 5 30 14 75 19 100 12 59 11 210 -1 280 -5 30 -12 79 -16 108 -8 75
-17 79 -207 86 -88 4 -161 8 -162 9 -2 1 1 9 6 17 6 8 10 10 10 4 0 -7 26 -12
67 -13 37 -1 64 2 60 6 -4 4 -28 6 -52 4 -27 -1 -45 2 -45 8 0 6 5 11 10 11 7
0 10 163 10 486 -1 424 1 488 14 498 11 8 13 15 6 26 -8 13 -11 11 -16 -7 -4
-13 -12 -23 -19 -23 -6 0 -24 -25 -40 -55 -15 -30 -31 -55 -36 -55 -5 0 -9 -9
-9 -20 0 -11 5 -20 10 -20 6 0 10 -9 10 -20 0 -11 -4 -20 -10 -20 -5 0 -10 5
-10 11 0 28 -29 -15 -35 -52 -4 -21 -10 -39 -15 -39 -4 0 -4 17 1 37 7 35 5
52 -6 42 -11 -12 -37 -131 -42 -197 -7 -82 8 -145 40 -167 22 -15 15 -35 -13
-35 -20 0 -115 48 -240 123 -76 45 -270 219 -270 243 0 6 -7 14 -15 18 -8 3
-15 12 -15 21 0 8 -5 15 -11 15 -5 0 -7 4 -4 10 3 5 -3 20 -14 32 -12 12 -21
30 -21 40 0 10 -4 26 -10 36 -57 104 -110 310 -110 427 0 80 24 226 50 299 82
238 292 449 545 549 127 49 231 80 252 73 10 -3 28 -24 41 -47 13 -22 28 -39
34 -37 12 4 15 89 4 107 -4 6 -4 11 1 11 4 0 -3 7 -16 17 -13 9 -39 16 -57 15
-19 -1 -44 3 -56 8 -17 7 -11 8 22 4 35 -4 42 -3 30 6 -12 9 -10 10 9 5 16 -5
21 -4 17 4 -4 6 0 11 11 12 10 0 13 3 6 6 -10 4 -13 78 -13 324 0 206 -4 319
-10 319 -5 0 -10 -18 -10 -40 0 -22 -4 -40 -10 -40 -5 0 -10 18 -10 40 0 42 1
42 70 53 67 11 -219 3 -310 -8z m260 -285 c0 -73 -4 -120 -10 -120 -6 0 -10
47 -10 120 0 73 4 120 10 120 6 0 10 -47 10 -120z m0 -240 c0 -22 -4 -40 -10
-40 -5 0 -10 18 -10 40 0 22 5 40 10 40 6 0 10 -18 10 -40z m-3 -1587 c-17
-18 -22 -8 -11 22 5 12 10 13 17 6 8 -8 6 -16 -6 -28z m-17 -38 c0 -8 -4 -15
-10 -15 -5 0 -10 7 -10 15 0 8 5 15 10 15 6 0 10 -7 10 -15z m5 -501 c-8 -9
-15 -29 -15 -45 0 -16 -4 -29 -9 -29 -13 0 -6 109 7 122 16 16 15 49 0 46 -15
-3 -15 21 -1 100 6 28 7 52 3 52 -16 0 -19 55 -3 67 8 6 15 24 15 40 0 15 3
44 7 63 3 19 7 -63 9 -183 2 -184 0 -220 -13 -233z m-66 336 c0 -9 -4 -8 -9 5
-5 11 -9 27 -9 35 0 9 4 8 9 -5 5 -11 9 -27 9 -35z m-2 -157 c-3 -10 -5 -4 -5
12 0 17 2 24 5 18 2 -7 2 -21 0 -30z m0 -85 c-3 -8 -6 -5 -6 6 -1 11 2 17 5
13 3 -3 4 -12 1 -19z m0 -50 c-3 -8 -6 -5 -6 6 -1 11 2 17 5 13 3 -3 4 -12 1
-19z m-12 -28 c3 -5 1 -10 -4 -10 -6 0 -11 5 -11 10 0 6 2 10 4 10 3 0 8 -4
11 -10z m95 -130 c0 -22 -4 -40 -10 -40 -5 0 -10 18 -10 40 0 22 5 40 10 40 6
0 10 -18 10 -40z m-143 -296 c-3 -3 -12 -4 -19 -1 -8 3 -5 6 6 6 11 1 17 -2
13 -5z m66 -11 c-7 -2 -19 -2 -25 0 -7 3 -2 5 12 5 14 0 19 -2 13 -5z"/>
<path d="M11433 11945 c0 -22 2 -30 4 -17 2 12 2 30 0 40 -3 9 -5 -1 -4 -23z"/>
<path d="M11434 11810 c0 -52 1 -74 3 -47 2 26 2 68 0 95 -2 26 -3 4 -3 -48z"/>
<path d="M11434 11550 c0 -69 1 -97 3 -62 2 34 2 90 0 125 -2 34 -3 6 -3 -63z"/>
<path d="M9463 11509 c-6 -8 -48 -86 -94 -174 -45 -88 -96 -185 -113 -216
l-31 -56 -140 83 c-76 46 -175 98 -219 115 -99 38 -228 61 -267 47 -25 -8 -28
-15 -31 -66 -4 -66 0 -102 11 -102 4 0 7 25 7 54 -1 66 9 80 50 67 16 -5 63
-17 104 -26 86 -20 188 -63 277 -117 100 -60 160 -88 191 -88 24 0 32 7 53 48
13 26 68 132 122 235 54 103 97 192 95 198 -2 7 -8 7 -15 -2z"/>
<path d="M11434 11260 c0 -74 1 -105 3 -67 2 37 2 97 0 135 -2 37 -3 6 -3 -68z"/>
<path d="M8210 11330 c0 -5 4 -10 9 -10 6 0 13 5 16 10 3 6 -1 10 -9 10 -9 0
-16 -4 -16 -10z"/>
<path d="M8125 11093 c-69 -17 -206 -70 -258 -101 -62 -36 -149 -100 -155
-114 -2 -5 -10 -8 -18 -8 -8 0 -14 -3 -14 -7 0 -5 -16 -26 -36 -48 -19 -22
-48 -59 -63 -83 -16 -23 -31 -37 -33 -30 -6 16 -42 -61 -65 -137 -37 -123 -17
-381 36 -465 9 -14 24 -41 34 -61 10 -20 29 -47 43 -62 13 -14 24 -30 24 -34
1 -11 98 -87 137 -107 l31 -16 7 68 c21 221 33 269 93 360 79 122 237 217 384
232 52 5 102 4 135 -2 89 -18 109 -9 275 129 263 217 302 253 267 253 -6 0
-39 -24 -73 -52 -85 -72 -142 -119 -255 -211 -89 -72 -99 -78 -131 -72 -133
23 -161 24 -227 11 -37 -7 -77 -17 -87 -21 -14 -6 -17 -5 -12 4 5 7 18 16 30
21 17 7 17 9 4 9 -17 1 -18 21 -18 270 0 236 -2 270 -16 275 -9 3 -16 5 -17 5
-1 -1 -11 -4 -22 -6z m35 -23 c0 -5 -4 -10 -9 -10 -6 0 -13 5 -16 10 -3 6 1
10 9 10 9 0 16 -4 16 -10z m0 -71 c0 -27 -4 -49 -10 -49 -5 0 -10 18 -10 39 0
36 -3 40 -30 46 -46 10 -43 20 6 16 l44 -3 0 -49z m0 -288 c0 -118 3 -161 13
-164 6 -2 0 -8 -15 -12 -15 -4 -35 -2 -45 4 -14 9 -11 10 17 6 19 -3 29 -3 23
1 -16 7 -19 324 -3 324 6 0 10 -60 10 -159z m-40 -220 c-19 -9 -37 -16 -40
-13 -9 7 34 32 54 32 16 -1 13 -5 -14 -19z"/>
<path d="M11434 10955 c0 -71 1 -99 3 -62 2 37 2 96 0 130 -2 34 -3 4 -3 -68z"/>
<path d="M11432 10750 c0 -19 2 -27 5 -17 2 9 2 25 0 35 -3 9 -5 1 -5 -18z"/>
<path d="M11433 10625 c0 -44 2 -61 4 -37 2 23 2 59 0 80 -2 20 -4 1 -4 -43z"/>
<path d="M9225 10584 c-193 -46 -468 -243 -619 -444 -117 -157 -184 -339 -159
-435 l11 -40 1 50 c3 162 105 353 280 525 156 154 288 241 494 326 88 36 86
40 -8 18z"/>
<path d="M11433 10445 c0 -27 2 -38 4 -22 2 15 2 37 0 50 -2 12 -4 0 -4 -28z"/>
<path d="M11433 10310 c0 -47 2 -66 4 -42 2 23 2 61 0 85 -2 23 -4 4 -4 -43z"/>
<path d="M11434 10065 c0 -77 2 -107 3 -67 2 40 2 103 0 140 -2 37 -3 4 -3
-73z"/>
<path d="M8890 10126 c0 -19 7 -65 16 -102 16 -70 22 -229 11 -274 -4 -15 0
-11 9 10 28 61 39 173 25 259 -14 84 -35 141 -50 141 -6 0 -11 -15 -11 -34z"/>
<path d="M8216 10013 c7 -4 14 -19 17 -33 4 -22 5 -21 4 4 -1 17 -9 31 -17 33
-10 3 -11 2 -4 -4z"/>
<path d="M9447 9812 c-16 -236 -116 -461 -276 -623 -67 -67 -226 -179 -293
-206 -21 -8 -40 -23 -43 -33 -3 -10 -7 -132 -9 -272 -4 -294 -19 -403 -77
-580 -21 -64 -42 -124 -48 -135 -5 -10 -25 -50 -44 -89 -19 -39 -49 -91 -66
-115 -44 -60 -144 -162 -213 -215 -71 -55 -184 -115 -203 -107 -21 7 -19 40 3
52 16 10 15 10 -3 11 -11 1 -14 4 -7 7 8 3 12 29 12 82 0 77 0 77 32 93 l32
15 -51 -3 c-29 -2 -55 1 -58 6 -3 6 4 10 17 10 14 0 33 7 44 16 18 15 18 15
-2 5 -32 -15 -133 -5 -186 18 -52 24 -101 75 -94 100 3 9 12 59 21 111 9 52
23 120 30 150 34 137 40 358 10 346 -15 -5 -36 39 -39 78 0 13 -5 24 -10 23
-5 -1 -20 14 -33 33 -73 105 -171 180 -343 262 -180 86 -409 90 -601 9 -88
-37 -195 -100 -238 -141 -18 -16 -35 -30 -37 -30 -6 0 -68 -66 -100 -106 -16
-21 -57 -79 -89 -128 l-59 -89 -1 -171 c0 -169 8 -236 41 -336 17 -51 90 -197
109 -220 65 -74 133 -143 154 -155 31 -17 115 -58 189 -91 28 -13 76 -35 105
-48 139 -64 311 -96 523 -96 188 0 380 37 582 111 227 84 438 274 549 494 49
96 110 271 135 385 18 81 22 138 25 380 5 294 10 330 47 330 24 0 218 134 278
191 176 168 282 404 295 652 3 64 4 117 1 117 -3 0 -8 -44 -11 -98z m-1387
-2102 c0 -12 -8 -12 -35 0 -18 8 -17 9 8 9 15 1 27 -3 27 -9z m100 -75 c0 -25
-4 -45 -10 -45 -5 0 -10 18 -10 39 0 36 -3 40 -27 44 -23 3 -21 4 10 6 l37 1
0 -45z m-30 -221 c-56 -17 -60 -17 -36 1 11 8 34 15 50 14 28 0 27 -2 -14 -15z"/>
<path d="M11432 9860 c0 -19 2 -27 5 -17 2 9 2 25 0 35 -3 9 -5 1 -5 -18z"/>
<path d="M11434 9730 c0 -52 1 -74 3 -47 2 26 2 68 0 95 -2 26 -3 4 -3 -48z"/>
<path d="M8041 9774 c0 -11 3 -14 6 -6 3 7 2 16 -1 19 -3 4 -6 -2 -5 -13z"/>
<path d="M11432 9560 c0 -19 2 -27 5 -17 2 9 2 25 0 35 -3 9 -5 1 -5 -18z"/>
<path d="M11433 9430 c0 -47 2 -66 4 -42 2 23 2 61 0 85 -2 23 -4 4 -4 -43z"/>
<path d="M11434 9170 c0 -80 2 -112 3 -72 2 39 2 105 0 145 -1 39 -3 7 -3 -73z"/>
<path d="M11434 8870 c0 -74 1 -105 3 -67 2 37 2 97 0 135 -2 37 -3 6 -3 -68z"/>
<path d="M11432 8670 c0 -19 2 -27 5 -17 2 9 2 25 0 35 -3 9 -5 1 -5 -18z"/>
<path d="M11433 8540 c0 -41 2 -58 4 -37 2 20 2 54 0 75 -2 20 -4 3 -4 -38z"/>
<path d="M7960 8480 c0 -5 5 -10 11 -10 5 0 7 5 4 10 -3 6 -8 10 -11 10 -2 0
-4 -4 -4 -10z"/>
<path d="M11432 8365 c0 -16 2 -22 5 -12 2 9 2 23 0 30 -3 6 -5 -1 -5 -18z"/>
<path d="M11432 8285 c0 -16 2 -22 5 -12 2 9 2 23 0 30 -3 6 -5 -1 -5 -18z"/>
<path d="M11347 8213 c-7 -12 -19 -103 -13 -103 6 0 28 102 22 107 -2 2 -6 1
-9 -4z"/>
<path d="M8235 7770 c-3 -5 -1 -10 4 -10 6 0 11 5 11 10 0 6 -2 10 -4 10 -3 0
-8 -4 -11 -10z"/>
<path d="M8278 7503 c7 -3 16 -2 19 1 4 3 -2 6 -13 5 -11 0 -14 -3 -6 -6z"/>
<path d="M8175 7460 c-3 -5 -2 -10 4 -10 5 0 13 5 16 10 3 6 2 10 -4 10 -5 0
-13 -4 -16 -10z"/>
<path d="M13553 6510 c8 -106 20 -148 52 -183 23 -24 33 -27 78 -26 29 1 62 7
74 15 22 14 80 121 70 130 -3 4 -13 -11 -22 -32 -31 -74 -94 -117 -82 -55 8
37 -14 59 -34 35 -10 -12 -10 -17 -1 -23 15 -9 5 -41 -12 -41 -40 0 -91 101
-111 220 -11 66 -18 45 -12 -40z"/>
<path d="M2670 6424 c-230 -35 -375 -102 -530 -246 -50 -45 -105 -121 -92
-125 6 -3 12 -12 12 -20 0 -13 -3 -13 -16 -2 -13 10 -17 10 -24 -1 -5 -8 -6
-18 -4 -22 3 -4 -2 -8 -11 -8 -14 0 -16 -6 -11 -27 4 -18 3 -23 -2 -15 -8 11
-10 11 -15 -1 -6 -16 15 -41 26 -31 3 3 58 5 121 5 104 -2 116 0 116 16 0 12
3 14 10 7 8 -8 8 -19 0 -38 -5 -15 -9 -37 -9 -49 1 -19 2 -19 6 -3 3 10 14 33
24 50 17 27 19 28 19 9 0 -12 -6 -28 -13 -35 -8 -7 -12 -18 -10 -25 2 -6 -6
-18 -17 -26 -14 -10 -18 -17 -10 -22 8 -5 7 -13 -3 -28 -8 -12 -17 -38 -21
-57 -3 -19 -9 -46 -12 -60 -9 -37 -6 -228 5 -280 7 -37 9 -23 10 83 1 154 20
247 69 340 67 129 161 208 288 242 91 24 262 27 337 5 109 -31 137 -48 221
-133 l83 -83 101 0 c56 0 102 4 102 9 0 5 10 7 22 4 19 -5 162 9 196 19 10 3
10 8 0 23 -7 11 -16 17 -20 15 -10 -6 -47 36 -48 53 0 19 -41 94 -74 138 -39
50 -119 126 -171 162 -22 16 -42 30 -45 33 -7 8 -137 65 -190 84 -100 35 -313
56 -420 40z m-267 -379 c4 -8 1 -17 -5 -21 -6 -4 -8 -3 -4 4 3 6 -2 15 -11 21
-16 9 -16 10 -2 11 9 0 19 -7 22 -15z m758 -12 c13 -16 12 -17 -3 -4 -10 7
-18 15 -18 17 0 8 8 3 21 -13z m-800 -46 c-8 -8 -11 -7 -11 4 0 20 13 34 18
19 3 -7 -1 -17 -7 -23z m-81 -1 c0 -3 -4 -8 -10 -11 -5 -3 -10 -1 -10 4 0 6 5
11 10 11 6 0 10 -2 10 -4z m957 -27 c10 -25 9 -29 -2 -19 -14 12 -27 50 -16
50 4 0 12 -14 18 -31z m43 27 c0 -3 -4 -8 -10 -11 -5 -3 -10 -1 -10 4 0 6 5
11 10 11 6 0 10 -2 10 -4z m-946 -28 c-7 -11 -34 -10 -34 1 0 6 9 9 19 8 11 0
17 -5 15 -9z m-259 -8 c-3 -5 -10 -10 -16 -10 -5 0 -9 5 -9 10 0 6 7 10 16 10
8 0 12 -4 9 -10z"/>
<path d="M3836 6395 c7 -19 14 -45 14 -58 0 -14 7 -30 15 -37 8 -7 15 -21 15
-32 0 -24 206 -438 330 -663 16 -27 36 -66 46 -85 9 -19 21 -42 26 -50 4 -8
27 -52 50 -98 24 -46 52 -100 62 -120 33 -64 36 -100 36 -395 0 -281 0 -289
20 -294 11 -3 20 -9 20 -14 0 -18 161 -9 313 17 l37 6 0 320 c0 288 2 323 18
356 19 38 152 295 250 482 171 326 352 680 352 686 0 4 -8 3 -17 -1 -10 -5
-94 -9 -188 -11 -93 -1 -176 -3 -182 -3 -7 -1 -13 -7 -13 -13 0 -7 -14 -40
-30 -73 -16 -33 -30 -66 -30 -74 0 -10 -3 -11 -13 -2 -16 12 -27 5 -27 -18 0
-14 2 -14 10 -1 23 35 9 -25 -21 -89 -60 -130 -68 -147 -95 -219 -15 -40 -27
-79 -27 -87 0 -8 -6 -15 -13 -15 -8 0 -10 -8 -6 -22 3 -12 7 -17 10 -10 2 8
36 12 113 12 90 0 109 3 109 15 0 8 5 15 11 15 5 0 7 -4 4 -10 -3 -5 -3 -15 1
-22 5 -8 10 -6 15 8 6 15 8 11 8 -15 1 -38 -37 -114 -54 -107 -8 3 -10 -4 -8
-17 5 -26 -20 -80 -32 -69 -5 4 -5 2 -2 -4 4 -7 -11 -44 -32 -83 -22 -39 -37
-71 -34 -71 3 0 0 -6 -6 -14 -6 -7 -30 -51 -52 -97 l-41 -84 4 -315 3 -315
-150 -3 c-82 -1 -159 -1 -170 2 -20 5 -20 12 -17 325 l3 320 -66 133 c-37 73
-71 140 -76 148 -30 51 -69 135 -69 151 0 10 -6 22 -14 26 -17 10 -69 113 -61
121 6 6 20 -10 28 -33 3 -5 8 -7 12 -3 4 4 2 14 -5 23 -10 12 -10 15 2 15 8 0
15 7 15 15 0 8 -4 12 -8 9 -13 -8 -22 17 -10 29 9 9 14 8 21 -3 9 -13 10 -13
10 0 1 8 7 0 15 -17 9 -22 21 -33 35 -33 11 0 20 -4 20 -10 0 -6 33 -10 80
-10 78 0 91 5 69 27 -6 6 -14 26 -19 44 -13 52 -36 110 -41 105 -3 -3 -6 4 -6
16 -1 11 -9 28 -17 37 -9 10 -16 23 -16 29 0 7 -4 20 -9 30 -4 9 -15 33 -23
52 -8 19 -22 52 -31 72 -9 21 -14 46 -11 55 5 14 4 15 -4 4 -7 -9 -11 -10 -17
-2 -4 7 -2 17 3 24 7 8 4 23 -9 47 -15 27 -18 29 -14 10 5 -22 4 -23 -5 -7 -7
10 -9 24 -7 31 6 14 -17 16 -245 19 -92 2 -142 7 -150 15 -22 22 -27 13 -12
-23z m584 -465 c0 -11 -2 -20 -4 -20 -2 0 -6 9 -9 20 -3 11 -1 20 4 20 5 0 9
-9 9 -20z m635 -58 c-15 -16 -16 -15 -4 12 7 15 15 23 17 16 3 -7 -3 -19 -13
-28z m47 -4 c-7 -7 -12 -8 -12 -2 0 14 12 26 19 19 2 -3 -1 -11 -7 -17z m-662
-29 c0 -5 -7 -9 -15 -9 -15 0 -20 12 -9 23 8 8 24 -1 24 -14z m-40 1 c0 -5
-18 -10 -40 -10 -22 0 -40 5 -40 10 0 6 18 10 40 10 22 0 40 -4 40 -10z m475
0 c3 -5 -3 -10 -15 -10 -12 0 -18 5 -15 10 3 6 10 10 15 10 5 0 12 -4 15 -10z
m218 -26 c-4 -12 -8 -13 -14 -3 -9 15 -2 32 11 24 5 -3 6 -13 3 -21z"/>
<path d="M6211 6398 c-6 -16 -16 -40 -23 -55 -16 -40 -62 -165 -93 -258 -15
-44 -38 -104 -51 -133 -13 -29 -24 -58 -24 -65 0 -13 -26 -86 -54 -150 -10
-22 -16 -46 -14 -55 2 -10 18 21 35 68 17 47 41 110 53 140 12 30 26 72 32 93
6 20 14 37 19 37 5 0 9 10 9 23 0 12 7 31 15 41 13 17 15 17 15 4 0 -9 -4 -19
-9 -22 -5 -4 -12 -24 -16 -47 -4 -22 -13 -52 -20 -66 -7 -14 -12 -42 -10 -62
4 -33 4 -34 -3 -6 l-8 30 -8 -40 c-4 -22 -11 -42 -15 -45 -14 -9 0 -80 15 -80
17 0 19 27 2 32 -7 3 -9 14 -3 34 7 26 8 27 15 9 5 -11 9 -32 9 -47 1 -26 4
-28 41 -28 22 0 40 -4 40 -10 0 -5 17 -10 38 -10 31 0 40 5 56 33 11 18 21 27
23 20 3 -7 11 -13 18 -13 7 0 16 6 18 13 3 7 6 4 6 -7 1 -10 -10 -40 -24 -67
-13 -27 -22 -56 -19 -64 4 -8 2 -15 -4 -15 -5 0 -15 -24 -20 -52 -6 -29 -32
-115 -58 -191 -43 -127 -50 -167 -23 -140 5 5 36 86 68 179 157 457 184 525
195 493 3 -8 22 -61 42 -119 20 -58 43 -125 51 -150 8 -25 21 -58 29 -73 7
-16 14 -37 14 -47 0 -9 11 -43 25 -74 14 -31 25 -67 25 -81 0 -13 5 -27 10
-30 6 -4 20 -27 32 -52 22 -46 42 -63 59 -46 5 5 -22 102 -71 251 -44 133 -80
244 -80 247 0 15 20 2 20 -12 1 -16 2 -16 15 1 14 19 15 18 16 -10 l1 -29 11
28 c11 26 27 37 27 17 0 -6 30 -10 70 -10 66 0 70 1 71 23 0 12 3 16 6 10 10
-26 31 -12 38 24 4 21 11 41 17 44 7 4 6 9 -1 13 -6 4 -11 2 -11 -3 0 -19 -20
-12 -21 7 0 15 -2 14 -9 -3 -7 -14 -8 -8 -3 20 3 22 9 42 13 45 5 3 2 19 -6
35 l-14 30 6 -32 c3 -17 1 -34 -4 -37 -6 -3 -9 17 -7 50 1 31 -1 50 -5 44 -8
-13 -39 40 -44 74 -1 8 -5 19 -9 22 -4 4 -7 14 -6 23 0 9 14 -11 30 -44 16
-33 27 -51 23 -40 -18 59 -98 284 -109 310 -7 17 -15 38 -18 47 -6 16 -26 17
-222 15 -136 -1 -216 2 -219 8 -2 6 -9 -2 -15 -17z m477 -103 c-3 -3 -9 2 -12
12 -6 14 -5 15 5 6 7 -7 10 -15 7 -18z m-547 -156 c-5 -13 -10 -19 -10 -12 -1
15 10 45 15 40 3 -2 0 -15 -5 -28z m603 16 c3 -8 1 -15 -4 -15 -6 0 -10 7 -10
15 0 8 2 15 4 15 2 0 6 -7 10 -15z m-214 -255 c0 -5 -2 -10 -4 -10 -3 0 -8 5
-11 10 -3 6 -1 10 4 10 6 0 11 -4 11 -10z m-193 -62 c-3 -7 -5 -2 -5 12 0 14
2 19 5 13 2 -7 2 -19 0 -25z m442 -70 c12 -16 11 -18 -7 -18 -14 0 -19 5 -17
18 2 9 4 19 4 21 1 2 2 2 4 0 1 -2 9 -12 16 -21z"/>
<path d="M7575 6353 c-12 -110 -14 -227 -14 -1023 -1 -658 1 -756 14 -769 12
-12 41 -15 144 -14 71 1 139 6 150 12 11 6 33 11 50 11 l31 0 1 588 c0 323 4
596 8 607 7 18 11 15 30 -24 13 -24 66 -109 119 -188 54 -80 104 -157 112
-171 9 -15 69 -108 135 -207 66 -99 122 -185 125 -190 3 -6 41 -64 85 -129 44
-66 89 -134 100 -151 42 -69 74 -111 100 -135 26 -25 30 -25 172 -23 80 1 150
7 157 12 6 5 25 11 41 13 l30 3 0 918 0 918 -182 2 -182 2 -6 -25 c-13 -48
-18 -1015 -5 -1108 11 -83 15 -100 24 -91 2 2 6 99 10 214 3 116 7 235 8 265
l1 55 6 -65 6 -65 19 38 18 37 119 0 119 0 2 -42 1 -43 6 45 c9 61 21 -376 21
-731 l0 -287 -27 -6 c-51 -11 -304 -4 -314 8 -6 6 -33 47 -62 91 -28 44 -54
82 -58 85 -3 3 -12 16 -19 29 -7 14 -17 30 -21 35 -13 16 -245 371 -250 382
-6 13 -121 188 -128 194 -10 8 -42 64 -48 83 -3 9 -9 17 -14 17 -5 0 -14 10
-19 23 -10 22 -20 39 -52 88 -17 25 -17 28 -1 40 15 12 16 12 10 -3 -3 -10 -2
-20 3 -23 5 -3 11 3 13 12 4 17 5 17 6 1 1 -16 12 -18 76 -18 47 0 75 4 75 11
0 6 7 3 16 -5 20 -20 21 -20 51 4 19 15 21 20 9 20 -9 0 -15 3 -14 8 1 4 -9
29 -21 57 -17 39 -24 46 -32 35 -8 -12 -9 -10 -5 6 4 14 -2 30 -19 50 -14 16
-25 34 -25 40 0 6 -18 34 -40 64 -22 29 -49 72 -60 95 -11 23 -29 50 -40 60
-11 10 -20 22 -20 28 0 5 -27 49 -60 98 -33 48 -60 92 -60 97 0 5 -17 27 -38
50 l-39 42 -156 0 c-85 0 -162 3 -170 6 -11 4 -16 -9 -22 -63z m475 -558 c7
-9 8 -15 2 -15 -5 0 -12 7 -16 15 -3 8 -4 15 -2 15 2 0 9 -7 16 -15z m-280
-125 c92 0 100 4 100 50 0 10 6 20 14 23 11 5 13 0 6 -23 -5 -16 -11 -34 -15
-40 -4 -6 4 -10 18 -10 22 0 25 -5 30 -62 4 -35 7 -275 7 -535 l0 -471 -165 1
c-104 1 -165 5 -165 12 -1 5 -1 222 0 480 0 481 4 540 40 595 9 14 21 34 26
45 7 16 9 12 12 -22 l3 -43 89 0z m370 76 c0 -11 -19 -15 -25 -6 -3 5 1 10 9
10 9 0 16 -2 16 -4z m737 -43 c-3 -10 -5 -2 -5 17 0 19 2 27 5 18 2 -10 2 -26
0 -35z m-717 12 c0 -8 -4 -15 -10 -15 -5 0 -10 7 -10 15 0 8 5 15 10 15 6 0
10 -7 10 -15z m-40 -28 c0 -5 -4 -5 -10 -2 -5 3 -10 14 -10 23 0 15 2 15 10 2
5 -8 10 -19 10 -23z m241 3 c5 0 9 -4 9 -10 0 -5 -7 -10 -15 -10 -10 0 -15 9
-14 28 1 16 3 20 6 10 2 -10 9 -18 14 -18z"/>
<path d="M7650 5655 c0 -8 2 -15 4 -15 2 0 6 7 10 15 3 8 1 15 -4 15 -6 0 -10
-7 -10 -15z"/>
<path d="M10304 6412 l-221 -2 -35 -93 c-20 -50 -43 -117 -53 -147 -10 -30
-26 -71 -36 -91 -11 -20 -19 -44 -19 -53 0 -9 -4 -24 -10 -34 -5 -9 -31 -82
-59 -162 -27 -80 -52 -153 -56 -162 -4 -10 -3 -18 3 -18 5 0 15 21 22 48 11
45 78 196 79 179 1 -5 -10 -43 -24 -85 -14 -42 -29 -89 -34 -104 -6 -18 -6
-28 0 -28 6 0 7 -5 4 -10 -4 -6 -11 -7 -17 -4 -11 7 -8 -11 7 -48 4 -11 3 -18
-5 -18 -6 0 -9 4 -5 9 3 5 1 12 -5 16 -6 4 -10 -7 -10 -26 l0 -32 30 32 c17
17 28 36 25 41 -6 10 15 50 27 50 13 0 9 -28 -5 -33 -7 -3 -12 -18 -12 -33 l2
-29 94 0 c83 0 95 -2 106 -20 15 -24 17 -2 3 25 -6 11 -6 21 -1 24 15 9 24
-53 11 -69 -6 -8 -8 -20 -4 -26 4 -8 3 -9 -4 -5 -8 5 -12 0 -12 -13 0 -11 -8
-44 -18 -73 -33 -94 -42 -124 -42 -141 0 -9 -5 -17 -12 -17 -9 0 -9 -3 0 -12
8 -8 15 -8 21 -3 6 6 42 102 81 215 176 506 167 483 180 459 4 -8 18 -45 30
-84 13 -38 27 -74 31 -80 3 -5 10 -25 14 -44 4 -18 16 -54 28 -80 11 -25 24
-59 28 -76 4 -16 22 -68 39 -115 18 -47 35 -94 39 -105 12 -38 56 -95 74 -95
9 0 17 4 17 9 0 8 -16 62 -29 96 -24 62 -29 85 -18 85 6 0 4 6 -5 13 -14 11
-34 69 -44 127 -3 24 -3 24 8 -2 15 -35 31 -37 22 -3 -7 30 12 34 21 5 5 -16
15 -20 46 -20 32 0 39 3 39 20 0 17 7 20 40 20 34 0 40 3 40 21 0 11 5 17 10
14 6 -4 8 -10 5 -15 -3 -5 -1 -11 5 -15 6 -4 7 -11 4 -17 -4 -6 -2 -8 4 -4 5
3 13 25 17 49 16 105 15 103 6 82 -10 -23 -7 -28 -41 78 -13 39 -20 80 -17 96
3 16 2 32 -2 37 -5 5 -20 43 -34 84 -52 152 -125 356 -138 385 l-14 30 -221
-3z m343 -384 c-3 -8 -6 -5 -6 6 -1 11 2 17 5 13 3 -3 4 -12 1 -19z m-680 -30
c-3 -8 -6 -5 -6 6 -1 11 2 17 5 13 3 -3 4 -12 1 -19z m722 -70 c13 -38 0 -26
-17 15 -7 16 -8 26 -3 23 5 -3 14 -20 20 -38z m48 -220 c-3 -8 -6 -5 -6 6 -1
11 2 17 5 13 3 -3 4 -12 1 -19z m-847 -28 c0 -5 -4 -10 -10 -10 -5 0 -10 5
-10 10 0 6 5 10 10 10 6 0 10 -4 10 -10z m587 -27 c-3 -10 -5 -4 -5 12 0 17 2
24 5 18 2 -7 2 -21 0 -30z m-361 -31 c-12 -11 -18 7 -10 30 l8 23 4 -23 c2
-13 1 -26 -2 -30z m-36 -22 c0 -5 -18 -10 -40 -10 -22 0 -40 5 -40 10 0 6 18
10 40 10 22 0 40 -4 40 -10z"/>
<path d="M11316 6379 c10 -66 52 -221 86 -314 8 -22 27 -76 42 -120 15 -44 31
-89 37 -100 15 -33 80 -207 93 -250 7 -22 17 -51 23 -65 28 -69 86 -227 87
-240 1 -8 7 -24 13 -35 6 -11 18 -40 27 -65 8 -25 28 -81 45 -125 16 -44 34
-96 41 -115 7 -19 19 -47 26 -61 7 -14 17 -43 23 -65 13 -55 65 -193 87 -231
30 -52 55 -57 238 -50 89 3 183 12 208 18 l45 12 33 91 c18 50 74 204 125 341
51 138 145 392 208 565 63 173 158 433 212 578 53 145 95 264 93 265 -1 1 -91
1 -198 -1 l-195 -3 -27 -67 c-15 -37 -34 -92 -43 -122 -9 -30 -23 -71 -31 -90
-23 -57 -114 -319 -139 -400 -13 -41 -32 -100 -43 -130 -31 -86 -54 -162 -49
-166 2 -2 23 49 47 113 24 65 49 132 56 148 7 17 15 45 19 62 4 18 11 36 17
40 8 4 9 0 4 -13 -4 -10 -12 -40 -18 -66 -6 -27 -15 -48 -18 -48 -4 0 -10 -22
-14 -48 -3 -26 -14 -64 -24 -83 -11 -21 -15 -47 -12 -68 6 -39 25 -52 33 -21
3 11 2 18 -3 15 -8 -5 -20 17 -20 36 0 16 18 10 23 -8 4 -17 5 -17 6 0 1 15
14 17 124 17 l123 0 -1 -25 c-2 -26 -36 -137 -46 -145 -3 -3 -13 -30 -22 -60
-25 -84 -74 -227 -83 -242 -4 -7 -9 -19 -10 -28 -1 -8 -20 -64 -42 -125 -23
-60 -53 -144 -67 -185 -15 -41 -30 -78 -33 -82 -10 -10 -320 -19 -375 -11
l-49 8 -69 190 c-38 105 -97 271 -131 370 -33 99 -69 198 -78 220 -10 23 -21
56 -24 75 -7 33 -6 34 9 16 15 -19 15 -19 15 2 0 15 -6 22 -18 22 -10 0 -19 6
-19 14 0 9 6 12 16 8 27 -10 40 -29 35 -50 -3 -11 -1 -23 5 -26 7 -5 11 5 12
26 0 18 3 27 6 21 3 -9 30 -13 84 -13 46 0 79 -4 79 -10 0 -5 7 -10 16 -10 11
0 14 5 10 16 -3 9 -6 18 -6 20 0 2 -22 4 -50 4 -27 0 -50 5 -50 10 0 6 24 10
54 10 47 0 56 3 61 21 5 14 1 25 -12 34 -10 7 -15 17 -10 21 4 4 7 2 7 -4 0
-7 4 -12 8 -12 5 0 0 26 -10 57 -12 34 -17 69 -14 88 4 22 3 26 -4 15 -9 -14
-11 -13 -14 9 0 5 -4 13 -8 17 -5 4 -8 14 -8 23 1 13 3 12 15 -3 14 -18 15
-18 15 -2 0 10 -9 20 -19 23 -20 5 -56 83 -48 106 2 6 9 -6 16 -28 7 -22 15
-46 17 -54 2 -8 7 -12 9 -9 4 4 -50 173 -151 465 l-38 111 -183 2 c-101 0
-190 3 -198 7 -13 4 -15 -2 -9 -38z m503 -341 c6 -18 7 -28 2 -23 -10 12 -25
55 -18 55 3 0 10 -15 16 -32z m728 -200 c-3 -8 -6 -5 -6 6 -1 11 2 17 5 13 3
-3 4 -12 1 -19z"/>
<path d="M5002 6360 c-6 -11 -12 -25 -12 -32 0 -6 -7 -19 -16 -29 -9 -10 -14
-24 -12 -31 3 -7 17 11 32 40 27 53 33 91 8 52z"/>
<path d="M13986 6200 c-29 -45 -59 -52 -102 -23 -24 15 -28 15 -72 -7 -25 -13
-62 -34 -81 -47 -60 -41 -131 -30 -194 28 -21 19 -102 64 -133 73 -20 6 -22 2
-29 -61 -13 -122 -15 -1487 -1 -1514 22 -45 56 -52 244 -51 262 1 358 16 393
61 18 23 19 56 19 802 0 433 -4 779 -9 779 -4 0 -20 -18 -35 -40z m-385 -790
c99 0 159 -4 159 -10 0 -6 33 -10 80 -10 69 0 80 2 81 18 0 15 1 14 8 -3 8
-19 8 -19 19 0 10 18 11 18 12 3 0 -10 7 -18 15 -18 8 0 16 8 17 18 5 58 16
-214 17 -435 2 -199 -1 -267 -11 -282 -12 -20 -21 -21 -294 -21 l-282 0 -12
30 c-9 21 -10 76 -6 202 3 95 6 248 7 339 0 92 3 170 7 174 7 7 8 8 12 53 3
19 5 15 7 -15 l4 -43 160 0z m79 30 c0 -6 -33 -10 -80 -10 -47 0 -80 4 -80 10
0 6 33 10 80 10 47 0 80 -4 80 -10z"/>
<path d="M4331 6194 c0 -11 3 -14 6 -6 3 7 2 16 -1 19 -3 4 -6 -2 -5 -13z"/>
<path d="M4857 6059 c-15 -27 -27 -55 -27 -62 1 -6 15 14 31 47 37 71 34 83
-4 15z"/>
<path d="M1912 5923 c-5 -10 -15 -38 -22 -63 -8 -25 -17 -50 -21 -55 -15 -20
-39 -151 -47 -250 -7 -93 -3 -190 13 -310 6 -43 79 -240 95 -255 3 -3 21 -30
41 -60 58 -88 103 -137 181 -195 40 -30 79 -59 86 -66 25 -21 177 -87 237
-102 137 -35 174 -40 284 -39 175 1 341 45 469 124 37 22 78 47 92 54 39 20
201 191 245 257 44 68 109 215 119 270 4 21 7 102 8 180 0 178 0 179 -12 172
-6 -4 -10 -65 -10 -152 0 -193 -21 -272 -111 -421 -123 -202 -344 -356 -579
-403 -132 -26 -320 -22 -445 11 -282 72 -504 267 -609 533 -54 136 -69 234
-63 417 6 160 12 197 55 338 11 35 8 43 -6 15z"/>
<path d="M4783 5905 c-3 -9 -3 -18 -1 -21 3 -3 8 4 11 16 6 23 -1 27 -10 5z"/>
<path d="M10731 5830 c0 -8 4 -24 9 -35 5 -13 9 -14 9 -5 0 8 -4 24 -9 35 -5
13 -9 14 -9 5z"/>
<path d="M4735 5800 c-3 -5 -1 -10 4 -10 6 0 11 5 11 10 0 6 -2 10 -4 10 -3 0
-8 -4 -11 -10z"/>
<path d="M10750 5765 c0 -5 5 -17 10 -25 5 -8 10 -10 10 -5 0 6 -5 17 -10 25
-5 8 -10 11 -10 5z"/>
<path d="M6273 5745 c0 -8 4 -15 8 -15 4 0 9 7 13 15 3 9 0 15 -8 15 -7 0 -13
-7 -13 -15z"/>
<path d="M6891 5744 c0 -11 3 -14 6 -6 3 7 2 16 -1 19 -3 4 -6 -2 -5 -13z"/>
<path d="M6251 5734 c0 -11 3 -14 6 -6 3 7 2 16 -1 19 -3 4 -6 -2 -5 -13z"/>
<path d="M11931 5714 c0 -11 3 -14 6 -6 3 7 2 16 -1 19 -3 4 -6 -2 -5 -13z"/>
<path d="M4961 5694 c0 -11 3 -14 6 -6 3 7 2 16 -1 19 -3 4 -6 -2 -5 -13z"/>
<path d="M11946 5670 c3 -14 10 -32 15 -40 7 -13 8 -13 8 0 0 8 -6 26 -15 40
l-15 25 7 -25z"/>
<path d="M8403 5635 c-3 -9 -3 -19 1 -22 3 -4 6 2 6 13 1 19 1 19 15 0 16 -21
19 -18 9 8 -8 20 -23 21 -31 1z"/>
<path d="M5921 5612 c-6 -12 -11 -29 -11 -39 1 -11 7 -4 16 16 16 37 12 55 -5
23z"/>
<path d="M6631 5614 c0 -11 3 -14 6 -6 3 7 2 16 -1 19 -3 4 -6 -2 -5 -13z"/>
<path d="M6906 5605 c4 -8 8 -15 10 -15 2 0 4 7 4 15 0 8 -4 15 -10 15 -5 0
-7 -7 -4 -15z"/>
<path d="M9786 5598 c-11 -35 -14 -60 -7 -52 10 11 23 64 16 64 -3 0 -7 -6 -9
-12z"/>
<path d="M2686 5558 c-4 -18 -9 -79 -12 -135 l-5 -102 29 -15 c24 -12 76 -15
290 -15 271 0 302 -4 302 -41 0 -11 4 -20 8 -20 13 0 54 98 47 110 -4 6 -118
10 -321 10 l-315 0 2 111 c1 111 -12 163 -25 97z"/>
<path d="M8200 5580 c0 -5 5 -10 11 -10 5 0 7 5 4 10 -3 6 -8 10 -11 10 -2 0
-4 -4 -4 -10z"/>
<path d="M10801 5550 c0 -8 4 -22 9 -30 12 -18 12 -2 0 25 -6 13 -9 15 -9 5z"/>
<path d="M10543 5513 c-17 -6 -17 -20 0 -26 8 -3 13 3 13 14 0 11 0 19 -1 18
0 0 -6 -3 -12 -6z"/>
<path d="M10820 5485 c0 -5 5 -17 10 -25 5 -8 10 -10 10 -5 0 6 -5 17 -10 25
-5 8 -10 11 -10 5z"/>
<path d="M5840 5398 c0 -7 -3 -24 -6 -38 -4 -18 -1 -16 10 9 19 39 19 41 6 41
-5 0 -10 -6 -10 -12z"/>
<path d="M9705 5375 c-8 -21 -13 -40 -11 -43 3 -2 12 13 21 33 8 21 13 40 11
43 -3 2 -12 -13 -21 -33z"/>
<path d="M12357 5394 c-4 -4 -7 -17 -7 -28 1 -19 1 -20 11 -3 11 19 8 43 -4
31z"/>
<path d="M12333 5316 c-6 -8 -14 -31 -18 -52 l-6 -39 14 35 c8 19 18 43 22 53
9 20 4 21 -12 3z"/>
<path d="M5786 5251 c-4 -7 -5 -15 -2 -18 9 -9 19 4 14 18 -4 11 -6 11 -12 0z"/>
<path d="M9630 5180 c0 -5 5 -10 10 -10 6 0 10 5 10 10 0 6 -4 10 -10 10 -5 0
-10 -4 -10 -10z"/>
<path d="M5751 5134 c0 -11 3 -14 6 -6 3 7 2 16 -1 19 -3 4 -6 -2 -5 -13z"/>
<path d="M12267 5137 c-4 -10 -7 -26 -7 -35 1 -15 2 -15 11 1 6 10 9 25 7 35
-3 16 -4 15 -11 -1z"/>
<path d="M9601 5084 c0 -11 3 -14 6 -6 3 7 2 16 -1 19 -3 4 -6 -2 -5 -13z"/>
<path d="M5681 4952 c-6 -12 -11 -29 -11 -39 1 -11 7 -4 16 16 16 37 12 55 -5
23z"/>
<path d="M6052 4948 c-5 -7 -33 -83 -62 -168 -29 -85 -57 -161 -63 -168 -15
-19 -360 -14 -353 5 3 7 1 13 -3 13 -10 0 -21 -24 -21 -46 0 -7 13 -20 30 -29
25 -13 50 -14 162 -6 73 5 149 13 168 18 38 10 33 1 125 257 l28 79 343 -5
c275 -4 347 -8 365 -19 19 -13 89 -166 89 -196 0 -7 4 -21 9 -31 5 -9 17 -34
27 -55 27 -54 60 -61 209 -47 197 18 215 21 215 35 0 18 -63 23 -221 18 -105
-4 -137 -2 -146 9 -5 7 -34 83 -63 168 -28 85 -57 161 -62 168 -8 9 -98 12
-388 12 -290 0 -380 -3 -388 -12z"/>
<path d="M9917 4953 c-3 -5 -12 -30 -20 -58 -26 -86 -94 -276 -101 -283 -4 -3
-86 -7 -182 -8 -173 -2 -176 -2 -170 18 3 12 1 17 -4 12 -5 -5 -12 -21 -15
-36 -10 -38 11 -45 148 -50 91 -4 133 -1 180 12 l62 17 38 109 c22 60 49 133
60 163 l22 53 195 -2 c366 -4 513 -9 521 -17 10 -10 86 -212 99 -262 5 -19 18
-43 30 -55 19 -20 29 -21 157 -18 75 2 145 8 154 13 10 5 36 9 58 9 30 0 41 4
41 15 0 18 6 17 -199 20 -131 1 -166 4 -173 16 -15 27 -78 212 -78 230 0 11
-4 19 -9 19 -5 0 -12 17 -16 37 -4 21 -12 41 -18 45 -16 10 -774 10 -780 1z"/>
<path d="M2405 4290 c-366 -179 -462 -223 -507 -227 l-47 -5 47 -56 47 -55 2
-101 c1 -56 2 -161 3 -234 0 -131 0 -133 26 -157 19 -18 39 -25 68 -25 78 -1
340 -56 331 -70 -3 -5 9 -10 27 -12 17 -2 34 -9 36 -17 4 -12 -9 -13 -74 -7
-44 4 -153 11 -244 16 -177 9 -195 12 -210 41 -6 10 -10 116 -10 243 0 204 -9
291 -27 272 -3 -3 -12 -1 -19 5 -20 17 -24 -26 -28 -358 -5 -348 -10 -323 64
-337 19 -3 145 -8 280 -11 191 -5 249 -9 265 -20 11 -8 30 -22 43 -31 20 -15
28 -15 64 -3 22 7 52 22 66 33 23 18 42 21 137 23 204 3 380 11 418 18 73 14
75 23 72 297 -2 134 -4 278 -4 322 -1 64 -3 76 -14 67 -8 -6 -16 -9 -19 -6 -3
3 -11 -1 -18 -10 -9 -11 -13 -75 -13 -248 0 -129 3 -239 7 -245 4 -6 -4 -18
-18 -27 -20 -13 -67 -19 -218 -25 -106 -5 -217 -12 -245 -16 -61 -8 -73 10
-25 38 27 16 160 51 242 62 103 15 181 38 191 57 6 12 10 106 9 237 -1 119 -1
227 -1 238 1 15 19 34 57 60 l57 39 -39 6 c-54 8 -43 4 -515 233 -64 31 -122
56 -130 56 -8 -1 -68 -27 -134 -60z m-328 -362 c41 -24 82 -47 91 -53 120 -72
157 -96 212 -138 73 -57 161 -147 154 -159 -3 -4 -35 17 -72 47 -81 65 -184
125 -274 159 -38 14 -68 24 -68 22 0 -2 24 -16 53 -31 101 -53 229 -149 297
-222 l69 -75 83 84 c75 76 118 109 272 207 61 38 48 40 -30 4 -86 -39 -173
-90 -224 -132 -92 -76 -97 -61 -9 27 54 56 164 134 302 218 27 16 67 41 90 56
23 14 45 27 50 27 4 1 7 -107 7 -238 l0 -239 -87 -12 c-147 -20 -250 -48 -333
-91 -103 -53 -144 -54 -231 -9 -95 49 -188 77 -319 97 l-118 17 -4 230 c-2
127 -2 234 0 239 5 11 10 9 89 -35z"/>
<path d="M11920 4173 c0 -11 74 -157 83 -164 17 -12 77 -124 77 -142 0 -8 11
-19 24 -25 13 -6 27 -23 30 -38 4 -15 16 -39 27 -52 10 -14 19 -29 19 -34 0
-5 9 -18 20 -30 11 -12 20 -30 20 -41 0 -10 9 -32 20 -47 18 -26 21 -46 22
-174 2 -101 6 -147 14 -150 6 -2 30 -2 53 1 l41 6 0 153 0 153 82 133 c172
280 268 440 268 445 0 3 -12 2 -27 -2 -16 -4 -38 -7 -50 -7 -22 2 -32 -13
-189 -270 -31 -51 -67 -110 -80 -130 -13 -20 -26 -48 -30 -63 -3 -14 -10 -25
-15 -23 -4 2 -75 113 -158 248 l-149 245 -35 -3 c-19 -2 -38 1 -42 7 -7 12
-25 15 -25 4z"/>
<path d="M3745 4112 c-15 -31 -54 -115 -87 -187 -69 -151 -68 -149 -148 -319
-33 -71 -60 -131 -60 -135 -1 -3 -20 -46 -44 -96 -24 -49 -41 -94 -39 -98 5
-9 86 -3 101 7 5 3 22 36 37 73 16 37 39 86 50 108 l22 40 214 1 c249 1 295
-7 292 -49 -1 -15 2 -25 6 -22 5 2 14 -10 22 -28 7 -17 23 -56 36 -85 l24 -54
52 7 c29 4 53 8 55 10 1 1 -20 49 -47 106 -50 106 -173 376 -283 619 -58 128
-88 180 -88 152 0 -6 -6 -10 -12 -8 -66 20 -73 17 -103 -42z m95 -99 c7 -21
27 -68 46 -104 18 -36 31 -69 27 -73 -3 -3 -1 -6 5 -6 7 0 12 -6 12 -14 0 -15
36 -94 75 -166 13 -25 25 -51 25 -57 0 -10 -47 -13 -204 -13 -113 0 -207 4
-210 9 -7 11 198 460 211 461 1 0 7 -17 13 -37z"/>
<path d="M6446 4115 c-13 -27 -63 -135 -111 -240 -47 -104 -101 -221 -119
-260 -18 -38 -43 -92 -55 -120 -12 -27 -39 -86 -60 -130 -36 -74 -38 -81 -21
-89 11 -5 35 -4 57 1 35 8 40 14 68 78 17 39 41 89 53 113 l23 42 207 -4 c114
-2 214 -7 222 -9 8 -3 24 -8 35 -13 11 -4 24 -8 30 -8 5 -1 17 -21 26 -46 9
-25 28 -71 42 -102 l26 -58 52 5 c29 3 55 7 57 9 2 2 -8 26 -21 53 -14 27 -59
123 -100 213 -41 91 -90 199 -109 240 -19 41 -63 138 -98 215 -35 77 -67 144
-71 148 -4 5 -30 10 -58 11 l-50 1 -25 -50z m144 -215 c18 -41 46 -101 61
-133 16 -32 29 -63 29 -68 0 -6 11 -27 25 -47 50 -73 51 -72 -185 -72 -115 0
-210 4 -210 9 0 4 34 82 76 172 41 90 81 178 87 194 6 17 20 45 31 64 l19 33
18 -38 c9 -22 32 -73 49 -114z"/>
<path d="M7576 4123 c-3 -25 -6 -227 -6 -449 0 -375 1 -403 18 -407 23 -7 184
-3 197 4 6 3 53 2 105 -2 63 -6 112 -5 145 2 246 55 385 220 385 458 0 206
-109 352 -305 406 -44 12 -116 18 -270 21 -115 2 -222 6 -236 8 -25 5 -27 2
-33 -41z m501 -59 c55 -19 123 -60 123 -75 0 -5 4 -8 9 -4 12 7 66 -72 81
-122 7 -21 19 -54 26 -74 9 -25 10 -54 4 -100 -15 -125 -69 -217 -162 -279
-89 -59 -112 -64 -308 -65 l-175 0 -3 300 c-1 165 1 332 4 372 l6 72 174 -5
c123 -3 188 -9 221 -20z"/>
<path d="M9079 4110 c-9 -674 -8 -820 7 -834 12 -13 32 -15 102 -11 83 6 230
7 262 2 8 -1 72 2 143 7 l127 8 0 32 c0 38 -8 50 -25 36 -8 -7 -105 -9 -261
-8 l-249 3 -3 172 -2 173 157 -2 c87 -1 191 -1 231 0 l72 2 0 40 c0 22 -4 40
-10 40 -5 0 -10 -3 -10 -7 0 -5 -80 -7 -177 -6 -98 2 -197 3 -220 3 l-43 0 0
165 0 164 188 -3 c103 -2 219 0 257 3 l70 6 3 35 3 35 -311 0 -310 0 -1 -55z"/>
<path d="M10387 4103 c-8 -75 -10 -817 -3 -824 3 -2 25 -3 50 -1 l46 4 0 346
c0 199 4 342 9 337 5 -6 20 -31 35 -57 42 -77 78 -141 95 -170 56 -93 81 -139
81 -147 0 -5 7 -14 15 -21 9 -7 14 -19 11 -27 -3 -8 -1 -11 4 -8 6 3 10 -3 10
-15 0 -12 5 -18 10 -15 9 5 25 -42 21 -60 0 -3 9 -16 21 -30 33 -38 81 -35
106 8 34 57 156 267 181 310 13 23 49 83 80 132 l56 90 5 -340 c4 -263 8 -340
18 -339 6 1 28 2 47 3 l35 1 0 445 c0 245 -3 445 -7 444 -5 0 -17 -4 -28 -8
-11 -5 -25 -4 -32 1 -13 10 -28 -10 -101 -137 -16 -27 -73 -124 -126 -215 -53
-91 -111 -195 -129 -232 -30 -62 -57 -88 -57 -53 0 8 -21 49 -46 92 -72 121
-254 432 -286 490 -22 40 -35 52 -51 51 -12 -1 -31 2 -43 5 -20 7 -21 3 -27
-60z"/>
<path d="M5095 4141 c-163 -50 -254 -140 -299 -297 -20 -68 -22 -91 -15 -159
4 -44 11 -98 17 -121 9 -40 56 -118 86 -143 9 -8 16 -21 16 -30 0 -9 17 -23
38 -33 20 -9 48 -23 62 -32 166 -101 407 -85 545 37 40 35 40 35 21 56 -11 12
-26 19 -33 16 -8 -2 -11 0 -8 5 12 19 -7 10 -48 -24 -73 -59 -111 -71 -218
-71 -56 0 -107 5 -122 13 -15 6 -39 18 -54 24 -53 24 -149 132 -174 194 -35
88 -33 218 3 296 49 106 162 196 253 203 17 1 44 5 60 9 17 3 53 2 80 -4 28
-6 57 -11 65 -11 23 -1 81 -29 118 -56 l34 -25 29 28 c16 15 29 31 29 36 0 13
-73 57 -131 79 -78 31 -270 36 -354 10z"/>
<path d="M14265 4049 c-16 -5 -41 -17 -53 -27 l-24 -19 1 -251 2 -252 -23 -9
c-13 -5 -52 -12 -88 -16 -100 -10 -229 -43 -290 -73 -67 -33 -82 -61 -18 -34
58 25 115 39 239 57 123 18 169 32 187 53 9 12 12 80 12 261 l0 246 58 37 c56
37 56 45 -3 27z"/>
<path d="M12978 4034 c12 -8 22 -21 22 -29 0 -8 10 -21 23 -30 22 -15 22 -20
25 -243 1 -125 5 -237 7 -249 7 -29 54 -50 130 -58 80 -8 204 -31 237 -44 14
-5 29 -7 32 -4 3 3 16 -1 28 -9 27 -17 82 -23 73 -8 -23 37 -189 92 -352 116
-104 16 -112 19 -118 42 -3 14 -5 130 -4 259 1 128 0 235 -2 237 -33 25 -60
36 -88 36 -35 0 -35 0 -13 -16z"/>
<path d="M12936 3848 c-3 -24 -7 -170 -10 -325 -4 -308 -5 -303 54 -316 14 -3
140 -9 280 -12 195 -5 260 -10 275 -21 11 -8 30 -22 43 -31 20 -14 28 -14 64
-2 22 7 52 22 66 33 22 18 42 21 122 22 310 4 470 22 495 57 9 13 12 94 10
323 -2 168 -5 308 -9 311 -3 4 -6 -127 -6 -291 0 -186 -4 -305 -10 -317 -10
-18 -24 -19 -300 -19 -289 0 -289 0 -301 -22 -19 -35 -35 -48 -61 -48 -28 0
-68 26 -68 44 0 8 -7 17 -16 20 -9 3 -147 6 -309 6 l-292 0 -5 58 c-3 31 -5
171 -4 310 2 237 -5 320 -18 220z"/>
<path d="M12981 3662 c-1 -140 2 -211 9 -207 12 8 12 371 0 400 -5 12 -9 -65
-9 -193z"/>
<path d="M14277 3863 c-11 -11 -8 -401 3 -408 7 -4 10 67 10 204 0 116 -1 211
-3 211 -2 0 -7 -3 -10 -7z"/>
<path d="M7440 2883 c0 -52 -3 -64 -12 -55 -13 13 -49 15 -97 6 -41 -8 -61
-46 -61 -114 0 -44 5 -56 29 -81 24 -23 38 -29 75 -29 24 0 48 5 52 11 4 8 9
8 17 0 6 -6 19 -11 29 -11 17 0 18 11 16 167 -3 164 -3 166 -25 169 -22 4 -23
1 -23 -63z m-25 -88 c59 -58 8 -184 -62 -152 -46 21 -50 129 -6 163 26 19 41
17 68 -11z"/>
<path d="M13770 2778 c0 -161 1 -168 20 -168 19 0 20 7 20 169 0 164 -1 170
-20 168 -19 -1 -20 -8 -20 -169z"/>
<path d="M14230 2885 c0 -64 -1 -65 -21 -54 -30 15 -105 2 -128 -23 -42 -45
-34 -139 16 -178 31 -24 85 -26 118 -4 23 15 25 15 25 -1 0 -10 6 -15 16 -13
8 2 15 6 15 11 -1 4 -1 79 -1 167 0 153 -1 160 -20 160 -18 0 -20 -7 -20 -65z
m-25 -90 c62 -61 5 -187 -68 -149 -46 25 -49 128 -4 159 30 21 44 19 72 -10z"/>
<path d="M3956 2933 c-3 -4 14 -43 39 -89 38 -70 46 -94 52 -159 5 -70 8 -76
27 -73 19 3 21 10 22 70 2 68 5 78 67 185 20 35 32 65 28 68 -5 2 -11 1 -15
-3 -4 -4 -13 -7 -19 -7 -6 0 -27 -32 -47 -72 l-36 -72 -35 71 c-31 65 -66 98
-83 81z"/>
<path d="M10410 2934 c0 -4 20 -44 45 -90 38 -70 46 -94 52 -158 5 -65 9 -76
24 -76 17 0 19 8 19 67 0 63 4 73 51 155 28 49 49 92 47 97 -2 5 -13 5 -26 0
-16 -6 -34 -32 -55 -79 -31 -68 -47 -86 -47 -55 0 25 -60 136 -70 130 -5 -3
-11 -1 -15 5 -7 11 -25 14 -25 4z"/>
<path d="M12360 2925 c0 -8 13 -67 29 -132 16 -65 32 -133 36 -151 6 -28 11
-33 32 -30 24 3 28 12 59 122 19 65 35 121 37 123 2 1 14 -48 26 -109 29 -145
26 -138 55 -138 21 0 27 7 37 43 6 23 26 94 44 157 31 111 32 115 13 118 -11
2 -22 2 -24 -1 -3 -2 -16 -53 -30 -113 -14 -60 -28 -116 -31 -124 -3 -8 -14
23 -25 70 -37 166 -38 168 -63 168 -29 0 -37 -19 -69 -158 -20 -88 -25 -100
-30 -75 -52 227 -53 232 -76 238 -13 3 -20 0 -20 -8z"/>
<path d="M1944 2914 c-67 -24 -88 -54 -92 -132 -3 -58 0 -72 20 -102 13 -19
39 -43 58 -52 39 -19 125 -23 165 -8 25 10 26 12 23 82 l-3 73 -38 -3 c-21 -2
-45 2 -53 8 -11 10 -14 9 -14 -9 0 -17 6 -21 31 -21 l30 0 -3 -52 -3 -53 -42
-3 c-23 -2 -52 2 -63 8 -50 27 -75 119 -50 184 16 42 66 67 130 64 45 -1 56 1
58 15 3 14 -5 17 -55 16 -32 0 -76 -7 -99 -15z"/>
<path d="M5956 2922 c-4 -7 -14 -137 -18 -247 -3 -55 -1 -60 18 -63 21 -3 22
2 29 105 3 59 7 117 8 128 2 11 15 -20 30 -70 45 -147 51 -160 72 -160 20 0
28 18 89 190 l25 70 1 -75 c3 -130 13 -185 33 -185 9 0 18 3 18 8 1 4 -2 75
-6 157 l-7 150 -31 -3 c-30 -2 -34 -7 -64 -87 -18 -47 -35 -102 -39 -122 -7
-41 -24 -52 -25 -15 0 12 -17 67 -37 121 -34 90 -40 99 -64 102 -15 1 -29 0
-32 -4z"/>
<path d="M6520 2910 c0 -15 7 -20 25 -20 18 0 25 5 25 20 0 15 -7 20 -25 20
-18 0 -25 -5 -25 -20z"/>
<path d="M8418 2919 c-10 -5 -18 -7 -18 -4 0 4 -14 -3 -30 -15 -42 -30 -60
-70 -60 -133 0 -65 28 -113 80 -139 39 -19 115 -23 154 -8 25 9 26 13 26 82
l0 73 -53 0 c-57 -1 -72 -18 -19 -23 l33 -3 -3 -52 -3 -52 -39 -3 c-81 -7
-126 38 -126 127 0 96 37 131 139 131 48 0 61 3 61 15 0 12 -13 15 -62 15 -35
0 -71 -5 -80 -11z"/>
<path d="M2442 2830 c-39 -24 -42 -24 -42 -5 0 8 -7 15 -15 15 -12 0 -15 -19
-15 -115 0 -108 1 -115 20 -115 18 0 20 7 20 68 0 89 7 109 41 124 16 7 29 21
29 30 0 22 2 22 -38 -2z"/>
<path d="M3140 2839 c0 -6 9 -44 20 -83 11 -39 25 -88 31 -108 8 -30 15 -38
33 -38 19 0 27 10 43 58 11 31 25 73 30 92 9 35 9 35 27 -40 22 -92 31 -110
56 -110 18 0 31 31 85 208 5 19 3 22 -17 19 -20 -3 -26 -15 -43 -80 -11 -43
-22 -77 -25 -77 -3 0 -16 35 -30 77 -20 61 -29 77 -46 80 -19 2 -24 -7 -45
-77 -12 -44 -26 -80 -29 -80 -4 0 -16 35 -26 78 -11 42 -24 77 -29 77 -6 0
-16 4 -22 8 -8 5 -13 3 -13 -4z"/>
<path d="M5392 2838 c-7 -7 -12 -8 -12 -3 0 4 -9 0 -20 -10 -18 -16 -20 -16
-20 -2 0 10 -8 17 -20 17 -19 0 -20 -7 -20 -116 0 -114 0 -115 23 -112 20 3
22 9 25 83 3 84 18 115 54 115 10 0 18 6 18 14 0 21 -15 27 -28 14z"/>
<path d="M8912 2838 c-7 -7 -12 -8 -12 -3 0 5 -6 0 -14 -11 -15 -19 -15 -19
-30 1 -8 11 -18 16 -22 12 -5 -4 -9 -56 -9 -115 0 -103 1 -107 23 -110 21 -3
22 -1 22 75 0 85 16 123 51 123 12 0 19 7 19 20 0 23 -10 26 -28 8z"/>
<path d="M11855 2840 c-4 -6 -10 -8 -15 -5 -4 3 -13 -2 -20 -10 -16 -19 -30
-19 -30 0 0 8 -7 15 -15 15 -12 0 -15 -19 -15 -115 0 -108 1 -115 20 -115 18
0 20 7 20 69 0 88 11 116 49 129 22 8 29 15 25 26 -7 19 -11 20 -19 6z"/>
<path d="M13504 2840 c-12 -5 -25 -13 -29 -19 -9 -16 -25 -13 -25 3 0 8 -8 13
-17 12 -16 -3 -18 -16 -18 -112 0 -102 1 -109 20 -109 18 0 21 8 25 84 5 66
10 86 25 97 10 8 25 14 32 14 7 0 13 9 13 20 0 11 -1 20 -2 19 -2 0 -13 -4
-24 -9z"/>
<path d="M2738 2825 c-33 -19 -53 -78 -44 -128 7 -37 54 -86 84 -88 96 -6 142
34 142 125 0 67 -30 98 -101 103 -36 2 -63 -2 -81 -12z m117 -28 c34 -34 17
-135 -26 -158 -48 -25 -97 38 -86 109 11 64 71 90 112 49z"/>
<path d="M4434 2830 c-42 -13 -68 -67 -61 -124 15 -108 164 -135 216 -39 20
38 14 109 -12 138 -26 30 -89 41 -143 25z m86 -20 c11 -6 24 -27 31 -48 32
-107 -87 -179 -122 -74 -27 82 28 156 91 122z"/>
<path d="M4847 2833 c-4 -3 -7 -43 -7 -88 0 -107 18 -135 89 -135 26 0 52 5
58 11 8 8 13 8 17 0 4 -6 14 -11 22 -11 11 0 14 22 14 115 0 108 -1 115 -20
115 -18 0 -20 -7 -20 -64 0 -97 -19 -136 -67 -136 -33 0 -43 29 -43 119 0 72
-2 81 -18 81 -10 0 -22 -3 -25 -7z"/>
<path d="M6520 2724 c0 -114 0 -115 23 -112 21 3 22 7 25 116 l3 112 -26 0
-25 0 0 -116z"/>
<path d="M6826 2779 c-13 -127 -7 -169 25 -169 17 0 19 8 19 73 0 87 15 121
53 125 48 6 57 -11 57 -109 l0 -89 26 0 26 0 -4 95 c-3 68 -8 100 -19 110 -22
23 -85 30 -115 15 -19 -11 -27 -11 -36 -2 -21 21 -25 14 -32 -49z"/>
<path d="M9203 2823 c-40 -20 -57 -61 -50 -116 15 -110 161 -136 212 -37 57
110 -49 209 -162 153z m106 -29 c34 -43 25 -118 -18 -151 -24 -18 -39 -16 -66
12 -19 18 -25 35 -25 70 0 81 67 123 109 69z"/>
<path d="M9600 2831 c0 -5 9 -37 19 -72 10 -35 23 -82 28 -104 7 -33 13 -40
33 -40 22 0 28 9 54 88 l29 88 19 -72 c24 -90 34 -109 58 -109 16 0 25 19 50
103 17 56 33 108 36 115 2 9 -3 12 -19 10 -18 -2 -25 -15 -41 -73 -10 -38 -21
-77 -23 -85 -3 -8 -17 23 -31 69 -33 101 -53 113 -82 48 -10 -23 -22 -59 -25
-79 -8 -45 -20 -49 -29 -10 -25 103 -37 132 -56 132 -11 0 -20 -4 -20 -9z"/>
<path d="M10895 2831 c-42 -18 -60 -50 -60 -108 0 -49 3 -58 33 -84 37 -34
102 -40 140 -13 49 34 66 109 37 163 -22 43 -97 63 -150 42z m94 -37 c30 -38
28 -103 -4 -138 -30 -32 -49 -33 -80 -1 -19 18 -25 35 -25 70 0 81 67 123 109
69z"/>
<path d="M11300 2752 c0 -75 3 -93 21 -116 16 -21 29 -26 63 -26 23 0 48 6 55
13 11 10 14 10 18 0 3 -7 13 -13 24 -13 18 0 19 8 19 115 0 108 -1 115 -20
115 -18 0 -20 -7 -20 -57 0 -86 -15 -131 -47 -139 -47 -12 -58 5 -63 102 -5
83 -7 89 -27 92 -22 3 -23 1 -23 -86z"/>
<path d="M12993 2820 c-64 -38 -63 -152 1 -191 59 -36 142 -16 165 39 7 16 11
51 9 78 -3 42 -7 51 -37 71 -42 28 -95 30 -138 3z m108 -19 c35 -28 34 -109 0
-145 -31 -33 -51 -33 -82 0 -33 36 -33 118 0 146 29 23 53 23 82 -1z"/>
<path d="M7759 2663 c-22 -5 -52 -100 -34 -107 17 -6 27 7 47 61 17 44 14 52
-13 46z"/>
</g>
</svg>
